<?xml version="1.0" encoding="utf-8"?>
<!-- Generator: Adobe Illustrator 19.1.0, SVG Export Plug-In . SVG Version: 6.00 Build 0)  -->
<svg version="1.1" id="아이콘" xmlns="http://www.w3.org/2000/svg" xmlns:xlink="http://www.w3.org/1999/xlink" x="0px" y="0px"
	 viewBox="0 0 33 33" enable-background="new 0 0 33 33" xml:space="preserve">
<path fill="#FFFFFF" d="M21.5,21.5h8v8h-8V21.5z M21.199,18.5c-1.491,0-2.699,1.209-2.699,2.7v8.6c0,1.491,1.208,2.7,2.699,2.7H29.8
	c1.491,0,2.7-1.209,2.7-2.7v-8.6c0-1.491-1.209-2.7-2.7-2.7H21.199z M3.5,3.5h9v9h-9V3.5z M3.2,0.5c-1.492,0-2.7,1.209-2.7,2.7v9.6
	c0,1.491,1.208,2.7,2.7,2.7h9.599c1.492,0,2.701-1.209,2.701-2.7V3.2c0-1.491-1.209-2.7-2.701-2.7H3.2z M3.2,18.5
	c-1.492,0-2.7,1.209-2.7,2.7v8.6c0,1.491,1.208,2.7,2.7,2.7h9.599c1.492,0,2.701-1.209,2.701-2.7v-8.6c0-1.491-1.209-2.7-2.701-2.7
	H3.2z M21.199,0.5c-1.491,0-2.699,1.209-2.699,2.7v9.6c0,1.491,1.208,2.7,2.699,2.7H29.8c1.491,0,2.7-1.209,2.7-2.7V3.2
	c0-1.491-1.209-2.7-2.7-2.7H21.199z"/>
</svg>
