<?xml version="1.0" encoding="utf-8"?>
<!-- Generator: Adobe Illustrator 19.1.0, SVG Export Plug-In . SVG Version: 6.00 Build 0)  -->
<svg version="1.1" id="아이콘" xmlns="http://www.w3.org/2000/svg" xmlns:xlink="http://www.w3.org/1999/xlink" x="0px" y="0px"
	 viewBox="0 0 34 33" enable-background="new 0 0 34 33" xml:space="preserve">
<g>
	<path fill="#FFFFFF" d="M14.227,27.859c-3.618,0-7.031-1.382-9.635-3.907c-2.657-2.575-4.151-6.03-4.209-9.729
		c-0.058-3.699,1.329-7.2,3.905-9.857c2.575-2.656,6.03-4.15,9.729-4.208c3.715-0.06,7.202,1.329,9.857,3.904
		c5.483,5.316,5.621,14.103,0.305,19.586l0,0c-2.576,2.657-6.032,4.152-9.731,4.209C14.374,27.858,14.3,27.859,14.227,27.859z
		 M14.238,3.156c-0.058,0-0.116,0-0.174,0.001c-2.898,0.045-5.605,1.216-7.622,3.296c-2.018,2.082-3.104,4.824-3.059,7.723
		c0.045,2.897,1.216,5.604,3.297,7.622c2.082,2.018,4.847,3.123,7.721,3.06c2.898-0.045,5.605-1.216,7.624-3.298l0,0
		c4.164-4.296,4.057-11.18-0.239-15.344C19.746,4.238,17.072,3.156,14.238,3.156z"/>
	<path fill="#FFFFFF" d="M32.119,32.845c-0.376,0-0.752-0.141-1.044-0.423l-9.017-8.741c-0.595-0.577-0.61-1.526-0.033-2.121
		c0.578-0.596,1.526-0.609,2.121-0.033l9.017,8.741c0.595,0.577,0.61,1.526,0.033,2.121C32.902,32.692,32.511,32.845,32.119,32.845z
		"/>
</g>
</svg>
