<?xml version="1.0" encoding="utf-8"?>
<!-- Generator: Adobe Illustrator 16.0.0, SVG Export Plug-In . SVG Version: 6.00 Build 0)  -->
<!DOCTYPE svg PUBLIC "-//W3C//DTD SVG 1.1//EN" "http://www.w3.org/Graphics/SVG/1.1/DTD/svg11.dtd">
<svg version="1.1" id="Layer_1" xmlns="http://www.w3.org/2000/svg" xmlns:xlink="http://www.w3.org/1999/xlink" x="0px" y="0px"
	 width="792px" height="612px" viewBox="0 0 792 612" enable-background="new 0 0 792 612" xml:space="preserve">
<path fill-rule="evenodd" clip-rule="evenodd" fill="#FFFFFF" d="M547.511,590.186L302.097,344.708
	c-22.189-22.125-22.189-55.377,0-77.502l245.415-245.48c22.125-22.125,53.533-25.812,75.66-3.688l9.219,7.376
	c16.656,20.346,20.344,44.314,1.842,60.909c-60.908,60.908-121.754,121.816-180.818,180.883c-22.189,22.125-22.189,55.377,0,77.502
	c59.064,60.908,119.91,119.975,180.818,180.882c18.502,18.438,14.814,40.564-1.843,60.909l-9.219,9.218
	C601.045,617.844,569.637,612.312,547.511,590.186L547.511,590.186z"/>
<path fill-rule="evenodd" clip-rule="evenodd" fill="#FFFFFF" d="M197.229,39.01c0-19.792,15.67-35.836,35-35.836h25.995
	c19.33,0,35,16.044,35,35.836v534.957c0,19.792-15.67,35.836-35,35.836h-25.995c-19.33,0-35-16.044-35-35.836V39.01z"/>
</svg>
