<?xml version="1.0" encoding="utf-8"?>
<!-- Generator: Adobe Illustrator 19.1.0, SVG Export Plug-In . SVG Version: 6.00 Build 0)  -->
<svg version="1.1" id="아이콘" xmlns="http://www.w3.org/2000/svg" xmlns:xlink="http://www.w3.org/1999/xlink" x="0px" y="0px"
	 viewBox="0 0 19 33" enable-background="new 0 0 19 33" xml:space="preserve">
<g opacity="0.8">
	<path opacity="0.5" fill="#A5A5A5" d="M17.552,32.511c-0.256,0-0.512-0.098-0.707-0.293L1.581,16.955
		c-0.391-0.391-0.391-1.023,0-1.414L16.318,0.804c0.391-0.391,1.023-0.391,1.414,0s0.391,1.023,0,1.414l-14.03,14.03l14.556,14.556
		c0.391,0.391,0.391,1.023,0,1.414C18.063,32.413,17.807,32.511,17.552,32.511z"/>
	<path opacity="0.5" fill="#A5A5A5" d="M1.448,32.489c-0.552,0-1-0.447-1-1v-30c0-0.553,0.448-1,1-1s1,0.447,1,1v30
		C2.448,32.042,2.001,32.489,1.448,32.489z"/>
</g>
</svg>
