<?xml version="1.0" encoding="utf-8"?>
<!-- Generator: Adobe Illustrator 19.1.0, SVG Export Plug-In . SVG Version: 6.00 Build 0)  -->
<svg version="1.1" xmlns="http://www.w3.org/2000/svg" xmlns:xlink="http://www.w3.org/1999/xlink" x="0px" y="0px"
	 viewBox="0 0 31.001 31" enable-background="new 0 0 31.001 31" xml:space="preserve">
<g id="레이어_1">
</g>
<g id="새플">
</g>
<g id="아이콘">
	<path opacity="0.7" fill="#7A7A7B" d="M18.995,26.564l1.944,0.002c1.947-0.002,3.539-1.593,3.537-3.537v-8.095h2.029
		c1.113,0,1.017-0.908-0.219-2.015l-8.538-7.654c-1.238-1.109-3.262-1.107-4.5,0.002l-8.533,7.649
		c-1.238,1.11-1.335,2.018-0.221,2.018c1.117,0,2.029,0,2.027,0.002l0.003,8.094c0,1.945,1.592,3.537,3.537,3.537l1.945-0.001
		L18.995,26.564z M19.617,15.002l0,3.445l-3.445,0.001l0.002-3.443L19.617,15.002z M11.385,15.002l3.444,0l0.003,3.443l-3.445,0
		L11.385,15.002z M11.387,23.232l-0.001-3.445l3.443,0.002l0.002,3.442H11.387z M16.172,23.23v-3.441l3.442-0.002l0.001,3.445
		L16.172,23.23z M16.172,23.23"/>
</g>
<g id="book">
</g>
<g id="레이어_4">
</g>
<g id="레이어_6">
</g>
</svg>
