<?xml version="1.0" encoding="utf-8"?>
<!-- Generator: Adobe Illustrator 19.1.0, SVG Export Plug-In . SVG Version: 6.00 Build 0)  -->
<svg version="1.1" id="아이콘" xmlns="http://www.w3.org/2000/svg" xmlns:xlink="http://www.w3.org/1999/xlink" x="0px" y="0px"
	 viewBox="0 0 19 33" enable-background="new 0 0 19 33" xml:space="preserve">
<g opacity="0.8">
	<path opacity="0.5" fill="#A5A5A5" d="M2.148,32.719c-0.256,0-0.512-0.098-0.707-0.293c-0.391-0.391-0.391-1.023,0-1.414
		l14.03-14.03L0.914,2.426c-0.391-0.391-0.391-1.023,0-1.414s1.023-0.391,1.414,0l15.263,15.263c0.391,0.391,0.391,1.023,0,1.414
		L2.855,32.426C2.659,32.621,2.404,32.719,2.148,32.719z"/>
	<path opacity="0.5" fill="#A5A5A5" d="M17.379,32.281c-0.552,0-1-0.447-1-1v-30c0-0.553,0.448-1,1-1s1,0.447,1,1v30
		C18.379,31.834,17.931,32.281,17.379,32.281z"/>
</g>
</svg>
