<?xml version="1.0" encoding="utf-8"?>
<!-- Generator: Adobe Illustrator 19.1.0, SVG Export Plug-In . SVG Version: 6.00 Build 0)  -->
<svg version="1.1" id="아이콘" xmlns="http://www.w3.org/2000/svg" xmlns:xlink="http://www.w3.org/1999/xlink" x="0px" y="0px"
	 viewBox="0 0 342.058 82.977" enable-background="new 0 0 342.058 82.977" xml:space="preserve">
<g enable-background="new    ">
	<path fill="#FF9500" d="M39.248,46.161c-0.065,0.111-0.138,0.193-0.215,0.248c-0.076,0.055-0.17,0.082-0.28,0.082
		c-0.125,0-0.271-0.063-0.44-0.186c-0.169-0.125-0.38-0.264-0.634-0.414c-0.253-0.15-0.558-0.287-0.913-0.412
		c-0.356-0.125-0.788-0.188-1.294-0.188c-0.478,0-0.897,0.064-1.262,0.191c-0.363,0.129-0.668,0.305-0.913,0.523
		c-0.246,0.221-0.432,0.48-0.557,0.777s-0.188,0.617-0.188,0.963c0,0.441,0.108,0.807,0.325,1.096
		c0.217,0.291,0.503,0.537,0.859,0.744c0.355,0.205,0.76,0.383,1.211,0.533s0.914,0.307,1.388,0.469
		c0.474,0.16,0.936,0.344,1.388,0.545c0.451,0.201,0.854,0.457,1.211,0.766s0.643,0.686,0.859,1.133
		c0.216,0.449,0.324,1,0.324,1.652c0,0.691-0.117,1.338-0.353,1.943c-0.234,0.605-0.578,1.133-1.029,1.58
		c-0.451,0.449-1.006,0.801-1.663,1.059c-0.657,0.256-1.403,0.385-2.24,0.385c-1.028,0-1.961-0.186-2.798-0.557
		s-1.553-0.871-2.147-1.502l0.617-1.014c0.059-0.08,0.13-0.148,0.215-0.203c0.084-0.057,0.178-0.084,0.28-0.084
		c0.096,0,0.204,0.039,0.325,0.117c0.121,0.076,0.259,0.174,0.413,0.291s0.33,0.246,0.528,0.385c0.198,0.141,0.424,0.27,0.678,0.387
		c0.253,0.117,0.541,0.215,0.864,0.291s0.687,0.115,1.09,0.115c0.507,0,0.958-0.068,1.354-0.209c0.396-0.139,0.732-0.336,1.008-0.59
		c0.275-0.252,0.486-0.555,0.633-0.908c0.147-0.352,0.221-0.744,0.221-1.178c0-0.477-0.108-0.867-0.325-1.172
		s-0.501-0.561-0.854-0.766s-0.756-0.381-1.211-0.523s-0.918-0.291-1.388-0.441s-0.933-0.324-1.388-0.521
		c-0.455-0.199-0.858-0.455-1.211-0.771s-0.637-0.711-0.854-1.184c-0.217-0.475-0.325-1.059-0.325-1.758
		c0-0.557,0.108-1.096,0.325-1.617s0.532-0.984,0.947-1.389c0.414-0.402,0.925-0.727,1.53-0.969s1.302-0.363,2.087-0.363
		c0.881,0,1.683,0.139,2.406,0.418c0.723,0.279,1.36,0.684,1.91,1.213L39.248,46.161z"/>
	<path fill="#FF9500" d="M55.91,43.694v15.781h-1.068c-0.169,0-0.31-0.029-0.424-0.088c-0.113-0.059-0.226-0.158-0.336-0.299
		l-9.129-11.893c0.015,0.184,0.025,0.363,0.033,0.539c0.007,0.178,0.011,0.342,0.011,0.496v11.244h-1.872V43.694h1.102
		c0.096,0,0.176,0.006,0.242,0.018c0.066,0.01,0.125,0.029,0.176,0.055c0.052,0.025,0.104,0.063,0.154,0.109
		c0.052,0.049,0.106,0.109,0.165,0.182l9.13,11.883c-0.016-0.191-0.028-0.377-0.039-0.557s-0.017-0.35-0.017-0.512V43.694H55.91z"/>
	<path fill="#FF9500" d="M68.012,46.161c-0.066,0.111-0.138,0.193-0.215,0.248s-0.171,0.082-0.281,0.082
		c-0.124,0-0.271-0.063-0.44-0.186c-0.169-0.125-0.38-0.264-0.633-0.414s-0.558-0.287-0.914-0.412s-0.787-0.188-1.294-0.188
		c-0.478,0-0.897,0.064-1.261,0.191c-0.363,0.129-0.668,0.305-0.914,0.523c-0.246,0.221-0.432,0.48-0.556,0.777
		c-0.125,0.297-0.188,0.617-0.188,0.963c0,0.441,0.108,0.807,0.325,1.096c0.216,0.291,0.502,0.537,0.858,0.744
		c0.356,0.205,0.76,0.383,1.211,0.533c0.452,0.15,0.914,0.307,1.388,0.469c0.474,0.16,0.937,0.344,1.388,0.545
		s0.855,0.457,1.211,0.766c0.356,0.309,0.643,0.686,0.859,1.133c0.217,0.449,0.325,1,0.325,1.652c0,0.691-0.118,1.338-0.353,1.943
		c-0.235,0.605-0.578,1.133-1.029,1.58c-0.452,0.449-1.007,0.801-1.663,1.059c-0.657,0.256-1.404,0.385-2.241,0.385
		c-1.028,0-1.96-0.186-2.797-0.557s-1.553-0.871-2.147-1.502l0.616-1.014c0.06-0.08,0.131-0.148,0.215-0.203
		c0.085-0.057,0.179-0.084,0.281-0.084c0.096,0,0.204,0.039,0.325,0.117c0.121,0.076,0.259,0.174,0.412,0.291
		c0.154,0.117,0.331,0.246,0.529,0.385c0.198,0.141,0.424,0.27,0.677,0.387c0.254,0.117,0.541,0.215,0.864,0.291
		s0.687,0.115,1.091,0.115c0.506,0,0.958-0.068,1.354-0.209c0.396-0.139,0.732-0.336,1.007-0.59
		c0.275-0.252,0.486-0.555,0.634-0.908c0.146-0.352,0.22-0.744,0.22-1.178c0-0.477-0.108-0.867-0.324-1.172
		c-0.217-0.305-0.501-0.561-0.854-0.766s-0.757-0.381-1.212-0.523s-0.917-0.291-1.387-0.441c-0.471-0.15-0.933-0.324-1.388-0.521
		c-0.455-0.199-0.859-0.455-1.212-0.771c-0.352-0.316-0.637-0.711-0.854-1.184c-0.216-0.475-0.324-1.059-0.324-1.758
		c0-0.557,0.108-1.096,0.324-1.617c0.217-0.521,0.532-0.984,0.947-1.389c0.415-0.402,0.925-0.727,1.531-0.969
		c0.605-0.242,1.301-0.363,2.087-0.363c0.881,0,1.683,0.139,2.405,0.418c0.724,0.279,1.36,0.684,1.911,1.213L68.012,46.161z"/>
</g>
</svg>
