<?xml version="1.0" encoding="utf-8"?>
<!-- Generator: Adobe Illustrator 19.1.0, SVG Export Plug-In . SVG Version: 6.00 Build 0)  -->
<svg version="1.1" id="아이콘" xmlns="http://www.w3.org/2000/svg" xmlns:xlink="http://www.w3.org/1999/xlink" x="0px" y="0px"
	 viewBox="0 0 342.058 82.977" enable-background="new 0 0 342.058 82.977" xml:space="preserve">
<g>
	<g enable-background="new    ">
		<path fill="#FF9500" d="M49.58,44.727v15.78h-1.872V48.911c0-0.154,0.005-0.319,0.017-0.495c0.011-0.177,0.023-0.356,0.038-0.54
			l-5.418,9.867c-0.169,0.33-0.426,0.495-0.771,0.495h-0.309c-0.345,0-0.602-0.165-0.771-0.495l-5.528-9.911
			c0.044,0.389,0.066,0.749,0.066,1.079v11.596h-1.872v-15.78h1.574c0.191,0,0.338,0.019,0.44,0.055
			c0.104,0.037,0.202,0.14,0.298,0.309l5.451,9.713c0.088,0.176,0.174,0.359,0.259,0.551c0.084,0.19,0.163,0.385,0.236,0.583
			c0.073-0.198,0.15-0.395,0.231-0.589c0.08-0.194,0.169-0.38,0.264-0.556l5.353-9.702c0.088-0.169,0.186-0.271,0.292-0.309
			c0.106-0.036,0.255-0.055,0.445-0.055H49.58z"/>
		<path fill="#FF9500" d="M63.345,58.767l-0.011,1.74h-9.724v-15.78h9.724v1.74h-7.588v5.241h6.146v1.674h-6.146v5.385H63.345z"/>
		<path fill="#FF9500" d="M79.115,44.727v15.78h-1.068c-0.169,0-0.311-0.029-0.424-0.088c-0.114-0.059-0.226-0.158-0.336-0.298
			l-9.129-11.893c0.015,0.184,0.025,0.363,0.033,0.539c0.007,0.177,0.011,0.342,0.011,0.496v11.243h-1.872v-15.78h1.101
			c0.096,0,0.177,0.006,0.243,0.017c0.065,0.011,0.124,0.029,0.176,0.055c0.051,0.026,0.103,0.063,0.154,0.11
			c0.051,0.048,0.106,0.108,0.165,0.182l9.129,11.882c-0.015-0.19-0.027-0.376-0.038-0.556c-0.012-0.18-0.017-0.351-0.017-0.513
			V44.727H79.115z"/>
		<path fill="#FF9500" d="M89.235,58.811c0.653,0,1.236-0.109,1.751-0.33c0.514-0.22,0.948-0.528,1.305-0.925
			c0.355-0.396,0.628-0.87,0.814-1.421c0.188-0.551,0.281-1.156,0.281-1.816v-9.592h2.125v9.592c0,0.91-0.145,1.755-0.435,2.532
			c-0.29,0.778-0.705,1.452-1.245,2.021c-0.539,0.569-1.198,1.016-1.977,1.339c-0.778,0.322-1.651,0.484-2.62,0.484
			c-0.97,0-1.843-0.162-2.621-0.484c-0.778-0.323-1.439-0.77-1.982-1.339c-0.543-0.568-0.96-1.242-1.25-2.021
			c-0.29-0.777-0.435-1.622-0.435-2.532v-9.592h2.125v9.58c0,0.661,0.094,1.267,0.281,1.817c0.187,0.551,0.458,1.024,0.814,1.421
			s0.793,0.706,1.311,0.931C87.996,58.699,88.58,58.811,89.235,58.811z"/>
	</g>
</g>
</svg>
