<?xml version="1.0" encoding="utf-8"?>
<!-- Generator: Adobe Illustrator 19.1.0, SVG Export Plug-In . SVG Version: 6.00 Build 0)  -->
<svg version="1.1" id="아이콘" xmlns="http://www.w3.org/2000/svg" xmlns:xlink="http://www.w3.org/1999/xlink" x="0px" y="0px"
	 viewBox="0 0 342.058 72.5" enable-background="new 0 0 342.058 72.5" xml:space="preserve">
<g enable-background="new    ">
	<path fill="#ACABA7" d="M114.577,38.133H95.725v-2.225h8.259v-1.696h-4.075v-7.687h10.483v7.687h-4.008v1.696h8.193V38.133z
		 M110.503,46.766h-2.356v-5.021h-8.436v-2.246h10.792V46.766z M108.036,32.01v-3.26h-5.792v3.26H108.036z"/>
	<path fill="#ACABA7" d="M127.02,38.574l-1.608,1.695l-3.656-2.951c-0.749,0.676-1.545,1.263-2.39,1.762
		c-0.844,0.5-1.678,0.882-2.5,1.146l-1.454-1.784c0.734-0.234,1.454-0.539,2.158-0.914c0.705-0.374,1.358-0.789,1.96-1.244
		c0.587-0.47,1.112-0.973,1.575-1.509c0.463-0.535,0.818-1.082,1.068-1.641h-5.638v-2.225h8.7c-0.088,0.881-0.301,1.715-0.639,2.5
		c-0.338,0.786-0.764,1.517-1.278,2.191L127.02,38.574z M124.113,29.786c-0.294,0.03-0.804,0.056-1.531,0.077
		c-0.727,0.022-1.53,0.019-2.412-0.011c-0.763-0.073-1.398-0.228-1.905-0.463c-0.507-0.234-0.826-0.41-0.958-0.528l0.749-1.806
		c0.073,0.029,0.184,0.073,0.331,0.132c0.146,0.059,0.315,0.118,0.506,0.176c0.206,0.06,0.433,0.114,0.683,0.166
		c0.25,0.051,0.521,0.084,0.814,0.099c0.778,0.044,1.516,0.052,2.214,0.022c0.697-0.029,1.2-0.059,1.508-0.089V29.786z
		 M134.751,35.424h-3.59v10.351h-2.356V25.734h2.356V33.2h3.59V35.424z"/>
</g>
<g>
	<path fill="#A5A5A5" d="M55.556,31.786c2.461,0,4.464-2.003,4.464-4.464c0-2.462-2.003-4.465-4.464-4.465
		c-1.939,0-3.575,1.247-4.191,2.976H30.258v2.976h21.107C51.981,30.539,53.617,31.786,55.556,31.786z M55.556,25.833
		c0.819,0,1.488,0.668,1.488,1.489c0,0.822-0.668,1.488-1.488,1.488c-0.821,0-1.488-0.666-1.488-1.488
		C54.068,26.501,54.735,25.833,55.556,25.833z"/>
	<path fill="#A5A5A5" d="M40.675,31.786c-1.939,0-3.575,1.247-4.191,2.976h-6.226v2.975h6.226c0.616,1.729,2.253,2.976,4.191,2.976
		c1.936,0,3.572-1.247,4.188-2.976H60.02v-2.975H44.863C44.247,33.033,42.61,31.786,40.675,31.786z M40.675,37.738
		c-0.821,0-1.488-0.665-1.488-1.488c0-0.821,0.667-1.488,1.488-1.488c0.819,0,1.488,0.667,1.488,1.488
		C42.163,37.073,41.494,37.738,40.675,37.738z"/>
	<path fill="#A5A5A5" d="M55.556,40.714c-1.939,0-3.575,1.247-4.191,2.976H30.258v2.976h21.107c0.616,1.729,2.253,2.976,4.191,2.976
		c2.461,0,4.464-2.003,4.464-4.465C60.02,42.717,58.017,40.714,55.556,40.714z M55.556,46.667c-0.821,0-1.488-0.666-1.488-1.489
		c0-0.821,0.667-1.488,1.488-1.488c0.819,0,1.488,0.667,1.488,1.488C57.044,46.001,56.375,46.667,55.556,46.667z"/>
</g>
</svg>
