<?xml version="1.0" encoding="utf-8"?>
<!-- Generator: Adobe Illustrator 19.1.0, SVG Export Plug-In . SVG Version: 6.00 Build 0)  -->
<svg version="1.1" id="아이콘" xmlns="http://www.w3.org/2000/svg" xmlns:xlink="http://www.w3.org/1999/xlink" x="0px" y="0px"
	 viewBox="0 0 342.058 72.5" enable-background="new 0 0 342.058 72.5" xml:space="preserve">
<g opacity="0.7">
	<path fill="#A5A5A5" d="M41.331,46.588h4.068V36.414h3.021l0.372-4.068h-3.235v-1.628c0-0.793,0.528-0.98,0.899-0.98h2.282v-3.484
		l-3.143-0.012c-3.489,0-4.282,2.6-4.282,4.261v1.843h-2.018v4.068h2.035V46.588z"/>
</g>
<g enable-background="new    ">
	<path fill="#ACABA7" d="M98.79,31.052v5.516h6.486v1.74H98.79v6.783h-2.136V29.311h9.724v1.74H98.79z"/>
	<path fill="#ACABA7" d="M106.796,35.51c0.617-0.594,1.281-1.039,1.993-1.332s1.501-0.441,2.367-0.441
		c0.624,0,1.179,0.104,1.663,0.309s0.893,0.492,1.223,0.859s0.58,0.811,0.749,1.332c0.168,0.521,0.253,1.094,0.253,1.719v7.135
		h-0.87c-0.19,0-0.338-0.031-0.44-0.094s-0.184-0.186-0.242-0.369l-0.22-1.057c-0.294,0.271-0.58,0.512-0.859,0.721
		c-0.279,0.211-0.572,0.387-0.881,0.529s-0.637,0.254-0.985,0.33c-0.35,0.078-0.736,0.115-1.162,0.115
		c-0.434,0-0.841-0.061-1.223-0.182s-0.714-0.303-0.996-0.545c-0.283-0.242-0.507-0.549-0.672-0.918
		c-0.165-0.371-0.248-0.811-0.248-1.316c0-0.441,0.121-0.865,0.363-1.271c0.242-0.408,0.635-0.77,1.179-1.086
		c0.543-0.314,1.252-0.574,2.125-0.775c0.874-0.203,1.945-0.318,3.216-0.348v-0.869c0-0.867-0.188-1.521-0.562-1.967
		c-0.375-0.443-0.922-0.666-1.641-0.666c-0.485,0-0.891,0.061-1.217,0.182c-0.327,0.121-0.609,0.258-0.849,0.408
		c-0.238,0.15-0.444,0.285-0.616,0.406c-0.173,0.121-0.344,0.182-0.512,0.182c-0.133,0-0.246-0.033-0.342-0.104
		s-0.176-0.156-0.242-0.26L106.796,35.51z M113.128,40.069c-0.903,0.029-1.672,0.102-2.307,0.215
		c-0.636,0.115-1.153,0.264-1.553,0.447c-0.4,0.184-0.69,0.398-0.87,0.648c-0.181,0.25-0.271,0.529-0.271,0.838
		c0,0.293,0.048,0.547,0.144,0.76s0.226,0.387,0.391,0.523c0.166,0.135,0.36,0.234,0.584,0.297s0.464,0.094,0.722,0.094
		c0.345,0,0.66-0.035,0.946-0.105c0.287-0.07,0.557-0.17,0.81-0.303c0.254-0.133,0.496-0.289,0.727-0.473
		c0.231-0.184,0.457-0.393,0.678-0.629V40.069z"/>
	<path fill="#ACABA7" d="M125.792,35.919c-0.06,0.08-0.118,0.143-0.177,0.188c-0.059,0.043-0.14,0.064-0.242,0.064
		c-0.11,0-0.231-0.045-0.363-0.137s-0.296-0.193-0.49-0.303c-0.194-0.111-0.434-0.211-0.716-0.303s-0.63-0.139-1.04-0.139
		c-0.551,0-1.035,0.098-1.454,0.293c-0.418,0.193-0.77,0.475-1.052,0.842s-0.495,0.811-0.639,1.332
		c-0.143,0.521-0.215,1.105-0.215,1.752c0,0.676,0.077,1.275,0.231,1.801c0.154,0.523,0.373,0.965,0.655,1.32
		s0.624,0.627,1.024,0.814c0.399,0.188,0.85,0.281,1.349,0.281c0.478,0,0.87-0.057,1.179-0.17c0.308-0.115,0.563-0.24,0.765-0.381
		c0.202-0.139,0.371-0.266,0.507-0.379c0.136-0.115,0.27-0.172,0.402-0.172c0.161,0,0.286,0.063,0.374,0.188l0.551,0.717
		c-0.242,0.301-0.518,0.557-0.826,0.77s-0.641,0.391-0.996,0.535c-0.356,0.143-0.729,0.248-1.118,0.313
		c-0.39,0.066-0.785,0.1-1.189,0.1c-0.697,0-1.345-0.129-1.943-0.385c-0.599-0.258-1.118-0.629-1.559-1.117s-0.785-1.09-1.035-1.801
		c-0.249-0.713-0.374-1.523-0.374-2.434c0-0.83,0.115-1.598,0.347-2.303s0.569-1.311,1.014-1.822c0.443-0.51,0.99-0.908,1.641-1.195
		c0.649-0.285,1.396-0.428,2.24-0.428c0.786,0,1.478,0.125,2.076,0.379s1.129,0.611,1.592,1.074L125.792,35.919z"/>
	<path fill="#ACABA7" d="M137.399,43.528c-0.242,0.293-0.532,0.549-0.87,0.764c-0.338,0.217-0.699,0.396-1.085,0.535
		c-0.385,0.139-0.783,0.244-1.194,0.314c-0.411,0.068-0.819,0.104-1.223,0.104c-0.771,0-1.481-0.131-2.131-0.391
		s-1.211-0.643-1.685-1.145c-0.474-0.504-0.843-1.125-1.106-1.867c-0.265-0.742-0.396-1.594-0.396-2.555
		c0-0.777,0.119-1.506,0.357-2.18c0.238-0.676,0.582-1.262,1.03-1.758c0.447-0.494,0.994-0.885,1.641-1.166
		c0.646-0.283,1.372-0.424,2.18-0.424c0.668,0,1.287,0.111,1.855,0.336c0.569,0.223,1.062,0.547,1.476,0.969
		c0.415,0.422,0.74,0.943,0.975,1.563c0.235,0.621,0.353,1.328,0.353,2.121c0,0.309-0.033,0.514-0.099,0.615
		c-0.066,0.104-0.191,0.154-0.375,0.154h-7.455c0.022,0.705,0.119,1.318,0.292,1.84s0.413,0.957,0.722,1.305
		c0.308,0.35,0.675,0.609,1.101,0.781c0.426,0.174,0.903,0.26,1.432,0.26c0.492,0,0.916-0.057,1.272-0.172
		c0.355-0.113,0.662-0.236,0.919-0.367c0.257-0.133,0.472-0.256,0.645-0.369c0.172-0.115,0.321-0.172,0.446-0.172
		c0.161,0,0.286,0.063,0.374,0.188L137.399,43.528z M135.813,38.298c0-0.457-0.064-0.873-0.192-1.25
		c-0.129-0.379-0.316-0.705-0.562-0.98c-0.246-0.275-0.546-0.488-0.897-0.639c-0.353-0.15-0.753-0.227-1.201-0.227
		c-0.939,0-1.683,0.273-2.229,0.82s-0.887,1.305-1.019,2.275H135.813z"/>
	<path fill="#ACABA7" d="M141.947,35.544c0.47-0.543,1-0.977,1.592-1.299c0.591-0.324,1.271-0.484,2.042-0.484
		c0.653,0,1.243,0.125,1.768,0.373c0.525,0.25,0.971,0.611,1.338,1.086c0.367,0.473,0.648,1.047,0.843,1.723
		s0.292,1.436,0.292,2.279c0,0.902-0.11,1.725-0.331,2.467c-0.22,0.742-0.537,1.375-0.952,1.9c-0.415,0.523-0.92,0.932-1.514,1.221
		c-0.595,0.291-1.264,0.436-2.005,0.436c-0.734,0-1.353-0.137-1.855-0.412s-0.941-0.666-1.315-1.174l-0.1,1.014
		c-0.059,0.279-0.228,0.418-0.507,0.418h-1.266V28.87h1.971V35.544z M141.947,42.405c0.359,0.484,0.755,0.824,1.184,1.023
		c0.43,0.197,0.901,0.297,1.415,0.297c1.05,0,1.854-0.371,2.412-1.111c0.558-0.742,0.837-1.848,0.837-3.314
		c0-1.367-0.248-2.371-0.743-3.012c-0.496-0.643-1.202-0.965-2.12-0.965c-0.639,0-1.194,0.146-1.668,0.441
		c-0.474,0.293-0.912,0.709-1.316,1.244V42.405z"/>
	<path fill="#ACABA7" d="M157.011,33.76c0.815,0,1.549,0.135,2.202,0.406s1.212,0.658,1.674,1.156
		c0.463,0.5,0.817,1.104,1.063,1.813c0.245,0.707,0.368,1.498,0.368,2.373c0,0.881-0.123,1.674-0.368,2.379
		c-0.246,0.703-0.601,1.307-1.063,1.805c-0.462,0.5-1.021,0.883-1.674,1.15c-0.653,0.27-1.387,0.402-2.202,0.402
		c-0.822,0-1.562-0.133-2.219-0.402c-0.657-0.268-1.217-0.65-1.68-1.15c-0.462-0.498-0.816-1.102-1.063-1.805
		c-0.246-0.705-0.369-1.498-0.369-2.379c0-0.875,0.123-1.666,0.369-2.373c0.246-0.709,0.601-1.313,1.063-1.813
		c0.463-0.498,1.022-0.885,1.68-1.156S156.189,33.76,157.011,33.76z M157.011,43.714c1.102,0,1.924-0.367,2.467-1.105
		s0.815-1.768,0.815-3.09c0-1.328-0.272-2.363-0.815-3.105c-0.543-0.74-1.365-1.111-2.467-1.111c-0.558,0-1.044,0.096-1.459,0.287
		c-0.415,0.189-0.76,0.465-1.035,0.824c-0.275,0.361-0.48,0.803-0.616,1.328c-0.137,0.525-0.204,1.117-0.204,1.777
		c0,1.322,0.273,2.352,0.82,3.09S155.895,43.714,157.011,43.714z"/>
	<path fill="#ACABA7" d="M169.498,33.76c0.815,0,1.549,0.135,2.202,0.406s1.212,0.658,1.674,1.156
		c0.463,0.5,0.817,1.104,1.063,1.813c0.245,0.707,0.368,1.498,0.368,2.373c0,0.881-0.123,1.674-0.368,2.379
		c-0.246,0.703-0.601,1.307-1.063,1.805c-0.462,0.5-1.021,0.883-1.674,1.15c-0.653,0.27-1.387,0.402-2.202,0.402
		c-0.822,0-1.562-0.133-2.219-0.402c-0.657-0.268-1.217-0.65-1.68-1.15c-0.462-0.498-0.816-1.102-1.063-1.805
		c-0.246-0.705-0.369-1.498-0.369-2.379c0-0.875,0.123-1.666,0.369-2.373c0.246-0.709,0.601-1.313,1.063-1.813
		c0.463-0.498,1.022-0.885,1.68-1.156S168.676,33.76,169.498,33.76z M169.498,43.714c1.102,0,1.924-0.367,2.467-1.105
		s0.815-1.768,0.815-3.09c0-1.328-0.272-2.363-0.815-3.105c-0.543-0.74-1.365-1.111-2.467-1.111c-0.558,0-1.044,0.096-1.459,0.287
		c-0.415,0.189-0.76,0.465-1.035,0.824c-0.275,0.361-0.48,0.803-0.616,1.328c-0.137,0.525-0.204,1.117-0.204,1.777
		c0,1.322,0.273,2.352,0.82,3.09S168.382,43.714,169.498,43.714z"/>
	<path fill="#ACABA7" d="M179.255,28.87v9.549h0.506c0.147,0,0.271-0.021,0.369-0.061c0.1-0.041,0.204-0.123,0.314-0.248
		l3.523-3.777c0.103-0.125,0.211-0.223,0.325-0.293c0.113-0.068,0.266-0.104,0.457-0.104h1.772l-4.107,4.371
		c-0.198,0.25-0.411,0.445-0.639,0.584c0.132,0.088,0.251,0.189,0.357,0.303s0.208,0.244,0.304,0.391l4.36,5.506h-1.751
		c-0.169,0-0.313-0.027-0.435-0.082s-0.227-0.156-0.314-0.303l-3.667-4.57c-0.11-0.154-0.219-0.254-0.324-0.303
		c-0.106-0.047-0.271-0.072-0.49-0.072h-0.562v5.33h-1.972V28.87H179.255z"/>
</g>
</svg>
