<?xml version="1.0" encoding="utf-8"?>
<!-- Generator: Adobe Illustrator 19.1.0, SVG Export Plug-In . SVG Version: 6.00 Build 0)  -->
<svg version="1.1" id="아이콘" xmlns="http://www.w3.org/2000/svg" xmlns:xlink="http://www.w3.org/1999/xlink" x="0px" y="0px"
	 viewBox="0 0 342.058 72.5" enable-background="new 0 0 342.058 72.5" xml:space="preserve">
<g opacity="0.7">
	<polygon fill="#A5A5A5" points="41.054,35.343 42.282,35.343 41.669,33.388 	"/>
	<path fill="#A5A5A5" d="M43.713,26.768c-5.618,0-10.173,3.518-10.173,7.855c0,2.839,1.95,5.327,4.872,6.707l-1.002,3.627
		c0,0-0.083,0.34,0.216,0.257c0.329-0.089,3.39-2.25,4.251-2.86c0.595,0.082,1.208,0.127,1.836,0.127
		c5.619,0,10.172-3.52,10.172-7.857C53.886,30.287,49.332,26.768,43.713,26.768z M38.791,36.782c0,0.307-0.26,0.559-0.582,0.559
		c-0.321,0-0.583-0.252-0.583-0.559v-3.457c0-0.013,0.001-0.022,0.002-0.033h-0.919c-0.305,0-0.552-0.252-0.552-0.559
		s0.247-0.559,0.552-0.559h3.043c0.303,0,0.551,0.252,0.551,0.559s-0.248,0.559-0.551,0.559H38.79c0,0.011,0.001,0.019,0.001,0.033
		V36.782z M43.496,37.326c-0.299,0.09-0.627-0.113-0.731-0.45l-0.178-0.565H40.75l-0.176,0.565c-0.105,0.337-0.434,0.541-0.733,0.45
		c-0.3-0.087-0.455-0.426-0.35-0.765l1.417-3.96c0.085-0.273,0.319-0.459,0.564-0.473l0,0h0.41l0,0
		c0.238,0.02,0.466,0.204,0.549,0.473l1.416,3.96C43.952,36.9,43.795,37.239,43.496,37.326z M46.6,37.298h-1.813
		c-0.314,0-0.567-0.246-0.567-0.547c0-0.004,0-0.005,0-0.008c0-0.002,0-0.005,0-0.007v-4.081c0-0.32,0.275-0.582,0.615-0.582
		c0.34,0,0.614,0.261,0.614,0.582v3.55h1.15c0.313,0,0.566,0.246,0.566,0.547C47.167,37.053,46.913,37.298,46.6,37.298z
		 M50.946,37.256c-0.262,0.212-0.632,0.184-0.829-0.059l-1.418-1.763l-0.108,0.108v1.147c0,0.358-0.292,0.652-0.653,0.652
		c-0.36,0-0.652-0.294-0.652-0.652v-3.907c0-0.363,0.293-0.654,0.652-0.654c0.361,0,0.653,0.291,0.653,0.654v1.162l1.515-1.515
		c0.22-0.218,0.578-0.218,0.799,0c0.221,0.222,0.221,0.578,0,0.801l-1.34,1.339l1.5,1.865
		C51.262,36.678,51.209,37.047,50.946,37.256z"/>
</g>
<g enable-background="new    ">
	<path fill="#ACABA7" d="M98.78,34.39h0.804c0.279,0,0.503-0.035,0.672-0.105c0.169-0.068,0.323-0.188,0.463-0.357l5.253-5.945
		c0.146-0.191,0.301-0.324,0.462-0.396c0.161-0.074,0.359-0.111,0.595-0.111h1.806l-6.012,6.795
		c-0.147,0.176-0.289,0.32-0.425,0.436c-0.136,0.113-0.28,0.207-0.435,0.279c0.198,0.066,0.378,0.164,0.54,0.293
		c0.161,0.129,0.319,0.295,0.473,0.5l6.277,7.479h-1.85c-0.14,0-0.259-0.01-0.358-0.027c-0.099-0.02-0.186-0.049-0.259-0.088
		c-0.073-0.041-0.138-0.09-0.192-0.145c-0.056-0.055-0.108-0.119-0.16-0.191l-5.439-6.268c-0.147-0.182-0.305-0.313-0.474-0.391
		c-0.169-0.076-0.426-0.115-0.771-0.115H98.78v7.225h-2.125V27.474h2.125V34.39z"/>
	<path fill="#ACABA7" d="M110.431,33.675c0.616-0.596,1.28-1.039,1.993-1.334c0.712-0.293,1.501-0.439,2.367-0.439
		c0.624,0,1.179,0.102,1.663,0.309c0.484,0.205,0.892,0.492,1.222,0.857c0.331,0.367,0.58,0.813,0.749,1.334
		s0.253,1.094,0.253,1.717v7.137h-0.869c-0.191,0-0.338-0.031-0.44-0.094c-0.104-0.063-0.184-0.186-0.242-0.369l-0.221-1.057
		c-0.294,0.271-0.58,0.512-0.859,0.721c-0.278,0.209-0.572,0.385-0.881,0.529c-0.308,0.143-0.637,0.252-0.985,0.33
		c-0.349,0.076-0.736,0.115-1.162,0.115c-0.433,0-0.84-0.061-1.222-0.182s-0.714-0.303-0.997-0.545
		c-0.282-0.242-0.506-0.549-0.672-0.92c-0.165-0.371-0.247-0.809-0.247-1.316c0-0.439,0.121-0.863,0.363-1.271
		s0.635-0.77,1.178-1.084c0.544-0.316,1.252-0.574,2.126-0.777c0.873-0.201,1.945-0.316,3.215-0.346v-0.871
		c0-0.865-0.187-1.521-0.562-1.965c-0.374-0.445-0.921-0.666-1.641-0.666c-0.484,0-0.89,0.061-1.217,0.182
		c-0.326,0.121-0.609,0.256-0.848,0.406c-0.239,0.15-0.444,0.287-0.617,0.408c-0.172,0.121-0.343,0.182-0.512,0.182
		c-0.132,0-0.246-0.035-0.342-0.105c-0.095-0.068-0.176-0.154-0.242-0.258L110.431,33.675z M116.762,38.234
		c-0.902,0.029-1.672,0.1-2.307,0.215c-0.635,0.113-1.152,0.262-1.553,0.445s-0.69,0.4-0.87,0.65s-0.27,0.527-0.27,0.836
		c0,0.295,0.048,0.547,0.144,0.76c0.095,0.213,0.226,0.389,0.391,0.523c0.165,0.137,0.359,0.234,0.584,0.297
		c0.224,0.063,0.464,0.094,0.721,0.094c0.345,0,0.661-0.035,0.947-0.104c0.286-0.07,0.556-0.172,0.81-0.303
		c0.253-0.133,0.495-0.291,0.727-0.475s0.457-0.393,0.677-0.627V38.234z"/>
	<path fill="#ACABA7" d="M123.634,27.035v9.547h0.506c0.147,0,0.271-0.02,0.369-0.061c0.1-0.041,0.204-0.123,0.314-0.248
		l3.523-3.777c0.103-0.125,0.211-0.221,0.325-0.291c0.113-0.07,0.266-0.105,0.457-0.105h1.772l-4.107,4.373
		c-0.198,0.248-0.411,0.443-0.639,0.582c0.132,0.09,0.251,0.189,0.357,0.305c0.106,0.113,0.208,0.244,0.304,0.391l4.36,5.506h-1.751
		c-0.169,0-0.313-0.027-0.435-0.084c-0.121-0.055-0.227-0.154-0.314-0.303L125.01,38.3c-0.11-0.154-0.219-0.256-0.324-0.303
		c-0.106-0.049-0.271-0.072-0.49-0.072h-0.562v5.33h-1.972V27.035H123.634z"/>
	<path fill="#ACABA7" d="M132.565,33.675c0.616-0.596,1.28-1.039,1.993-1.334c0.712-0.293,1.501-0.439,2.367-0.439
		c0.624,0,1.179,0.102,1.663,0.309c0.484,0.205,0.892,0.492,1.222,0.857c0.331,0.367,0.58,0.813,0.749,1.334
		s0.253,1.094,0.253,1.717v7.137h-0.869c-0.191,0-0.338-0.031-0.44-0.094c-0.104-0.063-0.184-0.186-0.242-0.369l-0.221-1.057
		c-0.294,0.271-0.58,0.512-0.859,0.721c-0.278,0.209-0.572,0.385-0.881,0.529c-0.308,0.143-0.637,0.252-0.985,0.33
		c-0.349,0.076-0.736,0.115-1.162,0.115c-0.433,0-0.84-0.061-1.222-0.182s-0.714-0.303-0.997-0.545
		c-0.282-0.242-0.506-0.549-0.672-0.92c-0.165-0.371-0.247-0.809-0.247-1.316c0-0.439,0.121-0.863,0.363-1.271
		s0.635-0.77,1.178-1.084c0.544-0.316,1.252-0.574,2.126-0.777c0.873-0.201,1.945-0.316,3.215-0.346v-0.871
		c0-0.865-0.187-1.521-0.562-1.965c-0.374-0.445-0.921-0.666-1.641-0.666c-0.484,0-0.89,0.061-1.217,0.182
		c-0.326,0.121-0.609,0.256-0.848,0.406c-0.239,0.15-0.444,0.287-0.617,0.408c-0.172,0.121-0.343,0.182-0.512,0.182
		c-0.132,0-0.246-0.035-0.342-0.105c-0.095-0.068-0.176-0.154-0.242-0.258L132.565,33.675z M138.896,38.234
		c-0.902,0.029-1.672,0.1-2.307,0.215c-0.635,0.113-1.152,0.262-1.553,0.445s-0.69,0.4-0.87,0.65s-0.27,0.527-0.27,0.836
		c0,0.295,0.048,0.547,0.144,0.76c0.095,0.213,0.226,0.389,0.391,0.523c0.165,0.137,0.359,0.234,0.584,0.297
		c0.224,0.063,0.464,0.094,0.721,0.094c0.345,0,0.661-0.035,0.947-0.104c0.286-0.07,0.556-0.172,0.81-0.303
		c0.253-0.133,0.495-0.291,0.727-0.475s0.457-0.393,0.677-0.627V38.234z"/>
	<path fill="#ACABA7" d="M148.498,31.923c0.815,0,1.549,0.137,2.202,0.408s1.212,0.656,1.674,1.156
		c0.463,0.498,0.817,1.102,1.063,1.811c0.245,0.709,0.368,1.5,0.368,2.373c0,0.881-0.123,1.674-0.368,2.379
		c-0.246,0.705-0.601,1.307-1.063,1.807c-0.462,0.498-1.021,0.883-1.674,1.15s-1.387,0.402-2.202,0.402
		c-0.822,0-1.562-0.135-2.219-0.402s-1.217-0.652-1.68-1.15c-0.462-0.5-0.816-1.102-1.063-1.807s-0.369-1.498-0.369-2.379
		c0-0.873,0.123-1.664,0.369-2.373s0.601-1.313,1.063-1.811c0.463-0.5,1.022-0.885,1.68-1.156S147.676,31.923,148.498,31.923z
		 M148.498,41.878c1.102,0,1.924-0.369,2.467-1.107c0.543-0.736,0.815-1.768,0.815-3.088c0-1.328-0.272-2.363-0.815-3.105
		s-1.365-1.113-2.467-1.113c-0.558,0-1.044,0.096-1.459,0.287s-0.76,0.467-1.035,0.826s-0.48,0.803-0.616,1.326
		c-0.137,0.525-0.204,1.119-0.204,1.779c0,1.32,0.273,2.352,0.82,3.088C146.551,41.509,147.382,41.878,148.498,41.878z"/>
	<path fill="#ACABA7" d="M159.511,43.431c-0.881,0-1.559-0.246-2.032-0.738s-0.71-1.199-0.71-2.125V33.74h-1.344
		c-0.117,0-0.217-0.033-0.297-0.104c-0.081-0.07-0.121-0.178-0.121-0.326v-0.781l1.828-0.23l0.451-3.447
		c0.021-0.109,0.071-0.199,0.148-0.27s0.178-0.105,0.303-0.105h0.991v3.844h3.227v1.42h-3.227v6.695c0,0.471,0.113,0.82,0.342,1.047
		c0.228,0.229,0.521,0.342,0.881,0.342c0.205,0,0.383-0.027,0.534-0.082c0.15-0.057,0.28-0.117,0.391-0.184
		c0.11-0.064,0.204-0.125,0.28-0.182c0.077-0.055,0.146-0.082,0.204-0.082c0.103,0,0.194,0.063,0.275,0.188l0.572,0.936
		c-0.338,0.316-0.745,0.564-1.222,0.744C160.509,43.341,160.017,43.431,159.511,43.431z"/>
	<path fill="#ACABA7" d="M163.696,33.675c0.616-0.596,1.28-1.039,1.993-1.334c0.712-0.293,1.501-0.439,2.367-0.439
		c0.624,0,1.179,0.102,1.663,0.309c0.484,0.205,0.892,0.492,1.222,0.857c0.331,0.367,0.58,0.813,0.749,1.334
		s0.253,1.094,0.253,1.717v7.137h-0.869c-0.191,0-0.338-0.031-0.44-0.094c-0.104-0.063-0.184-0.186-0.242-0.369l-0.221-1.057
		c-0.294,0.271-0.58,0.512-0.859,0.721c-0.278,0.209-0.572,0.385-0.881,0.529c-0.308,0.143-0.637,0.252-0.985,0.33
		c-0.349,0.076-0.736,0.115-1.162,0.115c-0.433,0-0.84-0.061-1.222-0.182s-0.714-0.303-0.997-0.545
		c-0.282-0.242-0.506-0.549-0.672-0.92c-0.165-0.371-0.247-0.809-0.247-1.316c0-0.439,0.121-0.863,0.363-1.271
		s0.635-0.77,1.178-1.084c0.544-0.316,1.252-0.574,2.126-0.777c0.873-0.201,1.945-0.316,3.215-0.346v-0.871
		c0-0.865-0.187-1.521-0.562-1.965c-0.374-0.445-0.921-0.666-1.641-0.666c-0.484,0-0.89,0.061-1.217,0.182
		c-0.326,0.121-0.609,0.256-0.848,0.406c-0.239,0.15-0.444,0.287-0.617,0.408c-0.172,0.121-0.343,0.182-0.512,0.182
		c-0.132,0-0.246-0.035-0.342-0.105c-0.095-0.068-0.176-0.154-0.242-0.258L163.696,33.675z M170.027,38.234
		c-0.902,0.029-1.672,0.1-2.307,0.215c-0.635,0.113-1.152,0.262-1.553,0.445s-0.69,0.4-0.87,0.65s-0.27,0.527-0.27,0.836
		c0,0.295,0.048,0.547,0.144,0.76c0.095,0.213,0.226,0.389,0.391,0.523c0.165,0.137,0.359,0.234,0.584,0.297
		c0.224,0.063,0.464,0.094,0.721,0.094c0.345,0,0.661-0.035,0.947-0.104c0.286-0.07,0.556-0.172,0.81-0.303
		c0.253-0.133,0.495-0.291,0.727-0.475s0.457-0.393,0.677-0.627V38.234z"/>
	<path fill="#ACABA7" d="M176.954,27.035v16.221h-1.96V27.035H176.954z"/>
	<path fill="#ACABA7" d="M182.096,27.035v9.547h0.506c0.147,0,0.271-0.02,0.369-0.061c0.1-0.041,0.204-0.123,0.314-0.248
		l3.523-3.777c0.103-0.125,0.211-0.221,0.325-0.291c0.113-0.07,0.266-0.105,0.457-0.105h1.772l-4.107,4.373
		c-0.198,0.248-0.411,0.443-0.639,0.582c0.132,0.09,0.251,0.189,0.357,0.305c0.106,0.113,0.208,0.244,0.304,0.391l4.36,5.506h-1.751
		c-0.169,0-0.313-0.027-0.435-0.084c-0.121-0.055-0.227-0.154-0.314-0.303l-3.667-4.568c-0.11-0.154-0.219-0.256-0.324-0.303
		c-0.106-0.049-0.271-0.072-0.49-0.072h-0.562v5.33h-1.972V27.035H182.096z"/>
</g>
</svg>
