<?xml version="1.0" encoding="utf-8"?>
<!-- Generator: Adobe Illustrator 19.1.0, SVG Export Plug-In . SVG Version: 6.00 Build 0)  -->
<svg version="1.1" id="아이콘" xmlns="http://www.w3.org/2000/svg" xmlns:xlink="http://www.w3.org/1999/xlink" x="0px" y="0px"
	 viewBox="0 0 342.058 72.5" enable-background="new 0 0 342.058 72.5" xml:space="preserve">
<g enable-background="new    ">
	<path fill="#ACABA7" d="M116.517,43.529H97.73v-2.203h18.787V43.529z M113.28,38.397h-12.51v-2.225h2.423
		c0-0.353-0.004-0.72-0.011-1.102c-0.008-0.381-0.019-0.727-0.033-1.035c-0.029-0.646-0.14-1.156-0.33-1.53
		c-0.191-0.374-0.323-0.613-0.396-0.716l2.092-0.859c0.044,0.074,0.117,0.181,0.22,0.319c0.103,0.14,0.206,0.327,0.308,0.563
		c0.103,0.234,0.195,0.514,0.275,0.837c0.081,0.322,0.128,0.704,0.143,1.145c0.029,0.382,0.048,0.782,0.055,1.2
		c0.007,0.419,0.011,0.812,0.011,1.179h3.061v-5.528h-7.62v-2.202h12.135v2.202h-2.181v5.528h2.357V38.397z"/>
	<path fill="#ACABA7" d="M129.974,38.331h-11.342v-6.585h6.167v-2.07h-6.277v-2.202h8.678v6.497h-6.211v2.136h8.986V38.331z
		 M134.246,46.546h-10.968v-6.717h2.356V44.3h8.611V46.546z M133.982,40.445h-2.334V25.954h2.334V40.445z"/>
	<path fill="#ACABA7" d="M155.191,43.529h-19.051v-2.225h19.051V43.529z M150.852,38.948h-10.814V28.222h10.66v2.203h-8.325v1.96
		h8.171v2.225h-8.171v2.092h8.479V38.948z"/>
</g>
<g>
	<path fill="#A5A5A5" d="M56.3,23.849H45.139c-2.051,0-3.72,1.669-3.72,3.72v12.402h-4.96c-4.684,0-6.118,6.903-6.176,7.197
		c-0.074,0.364,0.02,0.742,0.257,1.029c0.235,0.287,0.586,0.454,0.959,0.454h9.921c0.684,0,1.24-0.555,1.24-1.24h8.68
		c2.051,0,3.72-1.669,3.72-3.72V32.53h3.72c0.684,0,1.24-0.555,1.24-1.241v-3.72C60.02,25.518,58.351,23.849,56.3,23.849z
		 M40.266,46.171h-7.124c0.587-1.639,1.704-3.72,3.317-3.72h5.163C40.84,43.606,40.431,44.979,40.266,46.171z M46.379,42.45
		c0.556,0,1.24,0.686,1.24,1.241c0,0.431,0.094,0.847,0.245,1.24h-4.751C43.575,43.691,44.502,42.45,46.379,42.45z M52.58,43.691
		c0,0.685-0.557,1.24-1.24,1.24c-0.688,0-1.24-0.679-1.24-1.24c0-1.911-1.809-3.72-3.72-3.72h-2.48V27.569
		c0-0.684,0.555-1.24,1.24-1.24h7.668c-0.138,0.39-0.228,0.804-0.228,1.24V43.691z M57.54,30.05h-2.48v-2.48
		c0-0.684,0.556-1.24,1.24-1.24c0.683,0,1.24,0.556,1.24,1.24V30.05z"/>
	<rect x="45.139" y="28.81" fill="#A5A5A5" width="6.2" height="2.48"/>
	<rect x="45.139" y="32.53" fill="#A5A5A5" width="6.2" height="2.48"/>
	<rect x="45.139" y="36.25" fill="#A5A5A5" width="6.2" height="2.48"/>
</g>
</svg>
