<?xml version="1.0" encoding="utf-8"?>
<!-- Generator: Adobe Illustrator 19.1.0, SVG Export Plug-In . SVG Version: 6.00 Build 0)  -->
<svg version="1.1" id="아이콘" xmlns="http://www.w3.org/2000/svg" xmlns:xlink="http://www.w3.org/1999/xlink" x="0px" y="0px"
	 viewBox="0 0 342.058 72.5" enable-background="new 0 0 342.058 72.5" xml:space="preserve">
<g enable-background="new    ">
	<path fill="#ACABA7" d="M106.649,39.807l-3.854-3.854c-0.705,0.837-1.464,1.59-2.279,2.258s-1.663,1.222-2.544,1.662l-1.674-1.695
		c0.837-0.411,1.63-0.91,2.379-1.498c0.749-0.587,1.432-1.219,2.048-1.894c0.602-0.661,1.127-1.34,1.575-2.037
		c0.447-0.697,0.782-1.369,1.002-2.016h-5.836v-2.225h8.854c-0.118,0.94-0.36,1.883-0.727,2.83c-0.367,0.947-0.837,1.861-1.41,2.742
		c0.235,0.235,0.448,0.455,0.639,0.661c0.191,0.19,0.408,0.407,0.65,0.649s0.496,0.488,0.76,0.737
		c0.25,0.265,0.499,0.518,0.749,0.76c0.25,0.243,0.47,0.46,0.661,0.65c0.19,0.205,0.403,0.418,0.639,0.639L106.649,39.807z
		 M115.965,34.763h-3.59v11.012h-2.356V25.734h2.356v6.827h3.59V34.763z"/>
	<path fill="#ACABA7" d="M135.39,37.604h-18.875v-2.202h8.259v-1.52h-4.229v-7.356h10.572v2.247h-8.237v2.885h8.281v2.225h-3.986
		v1.52h8.215V37.604z M131.249,42.472c0,0.616-0.132,1.188-0.396,1.718c-0.265,0.528-0.631,0.983-1.102,1.365
		c-0.455,0.382-1.002,0.679-1.641,0.892c-0.639,0.213-1.333,0.319-2.081,0.319c-0.705,0-1.366-0.099-1.982-0.297
		s-1.16-0.488-1.63-0.87c-0.455-0.367-0.818-0.814-1.09-1.344c-0.272-0.528-0.408-1.115-0.408-1.762c0-0.631,0.128-1.211,0.386-1.74
		c0.256-0.528,0.613-0.983,1.068-1.365c0.47-0.366,1.013-0.657,1.63-0.87c0.617-0.212,1.292-0.319,2.026-0.319
		c0.719,0,1.398,0.104,2.037,0.309c0.639,0.206,1.193,0.499,1.663,0.881c0.47,0.367,0.84,0.815,1.112,1.344
		C131.113,41.26,131.249,41.84,131.249,42.472z M128.827,42.472c0-0.676-0.272-1.215-0.815-1.619
		c-0.543-0.403-1.204-0.605-1.982-0.605c-0.778,0-1.428,0.198-1.949,0.595c-0.521,0.396-0.782,0.939-0.782,1.63
		c0,0.66,0.268,1.185,0.804,1.574c0.536,0.389,1.178,0.584,1.927,0.584c0.792,0,1.457-0.184,1.993-0.551
		C128.559,43.712,128.827,43.176,128.827,42.472z"/>
	<path fill="#ACABA7" d="M147.217,36.084h-9.955v-9.25h2.313v7.004h7.642V36.084z M152.305,46.37h-10.528v-7.598h10.528V46.37z
		 M149.904,44.167v-3.172h-5.726v3.172H149.904z M152.789,38h-2.334v-6.188h-4.868v-2.225h4.868v-3.854h2.334V38z"/>
	<path fill="#ACABA7" d="M165.496,27.165c-0.206,2.467-1.05,4.611-2.533,6.432c-1.483,1.82-3.443,3.215-5.88,4.185l-1.564-1.674
		c2.012-0.793,3.616-1.803,4.813-3.028c1.196-1.226,1.957-2.456,2.279-3.689h-5.77v-2.225H165.496z M171.069,46.37h-10.572v-7.598
		h10.572V46.37z M168.668,44.167v-3.172h-5.77v3.172H168.668z M171.509,38.089h-2.356V25.734h2.356V38.089z"/>
</g>
<path fill="#A5A5A5" d="M32.384,21.369v29.762l25.51-14.881L32.384,21.369z M35.789,27.297l15.346,8.953l-15.346,8.952V27.297z"/>
</svg>
