<?xml version="1.0" encoding="utf-8"?>
<!-- Generator: Adobe Illustrator 19.1.0, SVG Export Plug-In . SVG Version: 6.00 Build 0)  -->
<svg version="1.1" id="아이콘" xmlns="http://www.w3.org/2000/svg" xmlns:xlink="http://www.w3.org/1999/xlink" x="0px" y="0px"
	 viewBox="0 0 342.058 72.5" enable-background="new 0 0 342.058 72.5" xml:space="preserve">
<g enable-background="new    ">
	<path fill="#ACABA7" d="M112.597,35.655l-1.85,1.542l-2.709-3.414c-0.412,0.867-0.903,1.59-1.476,2.17
		c-0.573,0.58-1.138,1.104-1.696,1.574l-1.696-1.762c0.044-0.029,0.092-0.063,0.144-0.099c0.051-0.037,0.099-0.069,0.143-0.1
		c0.044-0.029,0.091-0.063,0.143-0.099c0.051-0.037,0.099-0.077,0.143-0.121l-1.211-1.586c-0.426,0.764-0.917,1.439-1.476,2.026
		s-1.138,1.101-1.74,1.541l-1.762-1.762c0.837-0.499,1.505-1.064,2.004-1.695c0.499-0.632,0.874-1.256,1.124-1.872
		c0.264-0.632,0.437-1.226,0.518-1.784c0.08-0.558,0.121-1.021,0.121-1.388v-1.74h2.422v1.542c0,0.455-0.022,0.889-0.066,1.3
		s-0.103,0.8-0.176,1.167l1.894,2.444c0.543-0.837,0.892-1.677,1.046-2.521c0.154-0.844,0.231-1.574,0.231-2.191v-1.74h2.401v1.542
		c0,0.44-0.019,0.859-0.055,1.256c-0.037,0.396-0.077,0.771-0.121,1.123L112.597,35.655z M115.482,46.491h-10.638v-7.598h10.638
		V46.491z M113.103,44.289v-3.172h-5.88v3.172H113.103z M115.834,38.122h-2.356v-5.858h-3.392v-2.202h3.392v-4.206h2.356V38.122z"/>
	<path fill="#ACABA7" d="M127.022,39.509h-8.788v-11.32h2.334v9.096h6.453V39.509z M130.722,44.531h-2.334V34.356h-4.559v-2.247
		h4.559v-5.813h2.334V44.531z M135.105,45.896h-2.334V25.855h2.334V45.896z"/>
	<path fill="#ACABA7" d="M147.219,31.493c0,0.676-0.136,1.3-0.408,1.872c-0.272,0.572-0.635,1.064-1.09,1.476
		c-0.47,0.426-1.006,0.757-1.607,0.991c-0.603,0.235-1.241,0.353-1.916,0.353c-0.661,0-1.289-0.121-1.883-0.363
		s-1.112-0.569-1.553-0.98c-0.44-0.426-0.79-0.925-1.046-1.498c-0.257-0.572-0.386-1.188-0.386-1.85s0.125-1.277,0.375-1.85
		c0.25-0.573,0.595-1.064,1.035-1.476c0.426-0.426,0.936-0.757,1.531-0.991c0.595-0.235,1.237-0.353,1.927-0.353
		c0.705,0,1.361,0.113,1.971,0.341c0.609,0.229,1.141,0.548,1.597,0.958c0.44,0.412,0.792,0.903,1.057,1.476
		C147.086,30.171,147.219,30.802,147.219,31.493z M144.84,31.493c0-0.705-0.261-1.296-0.782-1.772
		c-0.521-0.478-1.142-0.716-1.861-0.716c-0.705,0-1.303,0.234-1.795,0.704c-0.492,0.471-0.738,1.058-0.738,1.762
		c0,0.749,0.246,1.354,0.738,1.817c0.492,0.463,1.09,0.693,1.795,0.693c0.705,0,1.321-0.23,1.85-0.693
		C144.576,32.825,144.84,32.227,144.84,31.493z M153.253,46.645h-10.813v-5.771h7.862V39.73h-7.973v-2.203h10.396v5.528h-7.818
		v1.321h8.347V46.645z M153.341,36.932h-2.334V25.855h2.334V36.932z"/>
</g>
<g>
	<path fill="#A5A5A5" d="M41.419,21.369h-7.441c-1.368,0-2.48,1.114-2.48,2.48v8.681c0,1.367,1.112,2.48,2.48,2.48h7.441
		c1.367,0,2.48-1.113,2.48-2.48v-8.681C43.899,22.483,42.786,21.369,41.419,21.369z M33.978,32.53v-8.681h4.96v2.48h2.48l0.001,6.2
		H33.978z"/>
	<path fill="#A5A5A5" d="M56.3,21.369h-7.441c-1.368,0-2.48,1.114-2.48,2.48v8.681c0,1.367,1.112,2.48,2.48,2.48H56.3
		c1.367,0,2.48-1.113,2.48-2.48v-8.681C58.78,22.483,57.667,21.369,56.3,21.369z M48.859,32.53v-8.681h4.96v2.48h2.48l0.001,6.2
		H48.859z"/>
	<path fill="#A5A5A5" d="M41.419,37.49h-7.441c-1.368,0-2.48,1.114-2.48,2.48v8.681c0,1.367,1.112,2.48,2.48,2.48h7.441
		c1.367,0,2.48-1.113,2.48-2.48V39.97C43.899,38.604,42.786,37.49,41.419,37.49z M33.978,48.651V39.97h4.96v2.48h2.48l0.001,6.2
		H33.978z"/>
	<path fill="#A5A5A5" d="M56.3,37.49h-7.441c-1.368,0-2.48,1.114-2.48,2.48v8.681c0,1.367,1.112,2.48,2.48,2.48H56.3
		c1.367,0,2.48-1.113,2.48-2.48V39.97C58.78,38.604,57.667,37.49,56.3,37.49z M48.859,48.651V39.97h4.96v2.48h2.48l0.001,6.2H48.859
		z"/>
</g>
</svg>
