<?xml version="1.0" encoding="utf-8"?>
<!-- Generator: Adobe Illustrator 19.1.0, SVG Export Plug-In . SVG Version: 6.00 Build 0)  -->
<svg version="1.1" id="아이콘" xmlns="http://www.w3.org/2000/svg" xmlns:xlink="http://www.w3.org/1999/xlink" x="0px" y="0px"
	 viewBox="0 0 342.058 72.5" enable-background="new 0 0 342.058 72.5" xml:space="preserve">
<g opacity="0.7">
	<path fill="#A5A5A5" d="M53.655,29.389c-0.806,0.474-1.7,0.816-2.652,0.998c-0.761-0.796-1.846-1.296-3.047-1.296
		c-2.304,0-4.172,1.839-4.172,4.107c0,0.321,0.038,0.635,0.107,0.935c-3.469-0.17-6.545-1.804-8.603-4.292
		c-0.358,0.608-0.565,1.312-0.565,2.067c0,1.423,0.739,2.683,1.857,3.42c-0.682-0.021-1.328-0.207-1.89-0.515v0.053
		c0,1.99,1.439,3.649,3.349,4.029c-0.351,0.096-0.719,0.143-1.101,0.143c-0.268,0-0.528-0.024-0.785-0.072
		c0.533,1.63,2.074,2.82,3.9,2.851c-1.429,1.102-3.23,1.759-5.185,1.759c-0.338,0-0.669-0.019-0.996-0.057
		c1.848,1.167,4.043,1.845,6.4,1.845c7.678,0,11.875-6.258,11.875-11.69c0-0.179-0.002-0.356-0.011-0.53
		c0.816-0.579,1.523-1.304,2.081-2.128c-0.747,0.328-1.55,0.546-2.397,0.647C52.682,31.155,53.342,30.35,53.655,29.389"/>
</g>
<g enable-background="new    ">
	<path fill="#ACABA7" d="M107.326,31.676h-5.11v13.986h-2.125V31.676h-5.12v-1.795h12.355V31.676z"/>
	<path fill="#ACABA7" d="M122.654,34.506l-3.611,11.156h-1.553c-0.191,0-0.323-0.125-0.396-0.375l-2.467-7.564
		c-0.059-0.17-0.106-0.34-0.144-0.514c-0.037-0.172-0.073-0.342-0.11-0.512c-0.036,0.17-0.073,0.34-0.109,0.512
		c-0.037,0.174-0.085,0.348-0.144,0.523l-2.511,7.555c-0.066,0.25-0.213,0.375-0.44,0.375h-1.476l-3.612-11.156h1.542
		c0.154,0,0.284,0.041,0.391,0.121c0.106,0.082,0.179,0.178,0.215,0.287l2.137,7.18c0.125,0.529,0.224,1.027,0.297,1.498
		c0.066-0.242,0.134-0.488,0.204-0.738c0.069-0.25,0.145-0.502,0.226-0.76l2.356-7.225c0.037-0.109,0.101-0.201,0.193-0.275
		c0.091-0.072,0.203-0.109,0.335-0.109h0.859c0.146,0,0.268,0.037,0.363,0.109c0.096,0.074,0.161,0.166,0.198,0.275l2.302,7.225
		c0.081,0.258,0.154,0.51,0.22,0.76c0.066,0.25,0.129,0.496,0.188,0.738c0.037-0.242,0.083-0.486,0.138-0.732
		s0.115-0.502,0.182-0.766l2.181-7.18c0.036-0.117,0.106-0.215,0.209-0.293c0.103-0.076,0.224-0.115,0.363-0.115H122.654z"/>
	<path fill="#ACABA7" d="M127.059,31.004c0,0.191-0.039,0.369-0.116,0.535c-0.077,0.164-0.18,0.313-0.308,0.439
		c-0.129,0.129-0.279,0.23-0.452,0.303c-0.173,0.074-0.354,0.111-0.545,0.111c-0.191,0-0.369-0.037-0.534-0.111
		c-0.165-0.072-0.311-0.174-0.435-0.303c-0.125-0.127-0.225-0.275-0.298-0.439c-0.073-0.166-0.11-0.344-0.11-0.535
		c0-0.189,0.037-0.371,0.11-0.545c0.073-0.172,0.173-0.322,0.298-0.451c0.124-0.129,0.27-0.229,0.435-0.303
		c0.165-0.072,0.343-0.109,0.534-0.109c0.19,0,0.372,0.037,0.545,0.109c0.173,0.074,0.323,0.174,0.452,0.303
		c0.128,0.129,0.23,0.279,0.308,0.451C127.02,30.633,127.059,30.815,127.059,31.004z M126.64,34.506v11.156h-1.96V34.506H126.64z"/>
	<path fill="#ACABA7" d="M133.281,45.838c-0.881,0-1.559-0.246-2.032-0.738s-0.71-1.199-0.71-2.125v-6.828h-1.344
		c-0.117,0-0.217-0.033-0.297-0.104c-0.081-0.07-0.121-0.178-0.121-0.326v-0.781l1.828-0.23l0.451-3.447
		c0.021-0.109,0.071-0.199,0.148-0.27s0.178-0.105,0.303-0.105h0.991v3.844h5.253l0.451-3.469c0.022-0.109,0.071-0.199,0.148-0.27
		s0.179-0.105,0.303-0.105h0.991v3.844h3.227v1.42h-3.227v6.695c0,0.471,0.116,0.82,0.348,1.047c0.23,0.229,0.522,0.342,0.875,0.342
		c0.205,0,0.384-0.027,0.534-0.082c0.15-0.057,0.28-0.117,0.391-0.184c0.11-0.064,0.204-0.125,0.281-0.182
		c0.077-0.055,0.145-0.082,0.203-0.082c0.11,0,0.202,0.063,0.275,0.188l0.584,0.936c-0.345,0.316-0.756,0.564-1.233,0.744
		s-0.969,0.27-1.476,0.27c-0.874,0-1.549-0.246-2.026-0.738s-0.716-1.199-0.716-2.125v-6.828h-5.187v6.695
		c0,0.471,0.113,0.82,0.342,1.047c0.228,0.229,0.521,0.342,0.881,0.342c0.205,0,0.383-0.027,0.534-0.082
		c0.15-0.057,0.28-0.117,0.391-0.184c0.11-0.064,0.204-0.125,0.28-0.182c0.077-0.055,0.146-0.082,0.204-0.082
		c0.103,0,0.194,0.063,0.275,0.188l0.572,0.936c-0.338,0.316-0.745,0.564-1.222,0.744C134.279,45.748,133.787,45.838,133.281,45.838
		z"/>
	<path fill="#ACABA7" d="M153.895,44.098c-0.242,0.295-0.532,0.549-0.869,0.766c-0.338,0.217-0.7,0.395-1.085,0.533
		c-0.386,0.141-0.784,0.244-1.195,0.314s-0.818,0.105-1.222,0.105c-0.771,0-1.481-0.131-2.131-0.391
		c-0.65-0.262-1.212-0.643-1.686-1.146c-0.473-0.502-0.842-1.125-1.106-1.867c-0.264-0.74-0.396-1.592-0.396-2.555
		c0-0.777,0.119-1.504,0.358-2.18c0.238-0.676,0.581-1.26,1.029-1.756c0.447-0.496,0.995-0.885,1.641-1.168
		c0.646-0.283,1.373-0.424,2.181-0.424c0.668,0,1.286,0.111,1.855,0.336c0.568,0.225,1.061,0.547,1.476,0.969
		s0.739,0.943,0.975,1.564c0.234,0.619,0.353,1.326,0.353,2.119c0,0.309-0.033,0.514-0.1,0.617c-0.065,0.104-0.19,0.154-0.374,0.154
		h-7.455c0.021,0.705,0.119,1.318,0.292,1.838c0.172,0.521,0.413,0.957,0.721,1.307c0.309,0.348,0.676,0.609,1.102,0.781
		s0.903,0.258,1.432,0.258c0.491,0,0.915-0.057,1.271-0.17s0.663-0.236,0.92-0.369s0.472-0.254,0.644-0.369
		c0.173-0.113,0.321-0.17,0.446-0.17c0.161,0,0.286,0.063,0.375,0.188L153.895,44.098z M152.31,38.867
		c0-0.455-0.064-0.871-0.193-1.25c-0.128-0.377-0.315-0.705-0.562-0.98s-0.545-0.488-0.897-0.639s-0.753-0.225-1.2-0.225
		c-0.939,0-1.684,0.273-2.229,0.82c-0.548,0.547-0.887,1.305-1.02,2.273H152.31z"/>
	<path fill="#ACABA7" d="M158.332,36.742c0.353-0.764,0.786-1.359,1.3-1.789s1.142-0.645,1.883-0.645
		c0.235,0,0.461,0.025,0.678,0.076c0.216,0.053,0.409,0.133,0.578,0.242l-0.144,1.465c-0.044,0.184-0.154,0.275-0.33,0.275
		c-0.103,0-0.253-0.021-0.451-0.066c-0.198-0.043-0.423-0.066-0.672-0.066c-0.353,0-0.667,0.053-0.941,0.154
		c-0.275,0.104-0.521,0.256-0.738,0.457c-0.217,0.203-0.411,0.453-0.584,0.75c-0.172,0.297-0.328,0.637-0.468,1.018v7.049h-1.971
		V34.506h1.123c0.213,0,0.359,0.041,0.44,0.121c0.081,0.082,0.136,0.221,0.165,0.42L158.332,36.742z"/>
</g>
</svg>
